<?xml version="1.0" standalone="no"?>
<!DOCTYPE svg PUBLIC "-//W3C//DTD SVG 20010904//EN"
 "http://www.w3.org/TR/2001/REC-SVG-20010904/DTD/svg10.dtd">
<svg version="1.0" xmlns="http://www.w3.org/2000/svg"
 width="421.000000pt" height="421.000000pt" viewBox="0 0 421.000000 421.000000"
 preserveAspectRatio="xMidYMid meet">
<metadata>
Created by potrace 1.11, written by Peter Selinger 2001-2013
</metadata>
<g transform="translate(0.000000,421.000000) scale(0.100000,-0.100000)"
fill="#000000" stroke="none">
<path d="M1995 3745 c-121 -19 -275 -60 -331 -88 -98 -49 -167 -130 -198 -229
-3 -12 -12 -15 -28 -12 -91 22 -169 -31 -233 -159 -19 -38 -38 -84 -41 -100
-2 -17 -7 -33 -9 -36 -7 -12 -17 -126 -16 -186 1 -61 3 -80 22 -171 13 -66 18
-224 7 -224 -4 0 -9 5 -9 10 -1 6 -2 14 -3 19 0 5 -4 13 -8 16 -4 4 -5 -5 -2
-20 3 -16 1 -24 -6 -20 -6 4 -7 -1 -3 -11 4 -12 3 -15 -5 -10 -7 4 -12 2 -12
-4 0 -6 -4 -9 -9 -5 -5 3 -12 1 -15 -3 -3 -5 6 -14 20 -21 14 -6 23 -15 19
-20 -3 -5 -1 -12 4 -16 6 -3 7 -13 4 -22 -4 -11 -3 -14 6 -9 7 5 10 14 7 21
-3 8 2 19 10 26 13 10 14 8 10 -13 -2 -14 2 -59 10 -99 8 -41 14 -76 14 -78 0
-2 -11 0 -24 3 -34 8 -67 -22 -82 -74 -12 -42 -12 -173 1 -260 3 -19 8 -53 11
-75 14 -109 45 -159 98 -159 31 0 37 -4 42 -25 30 -155 103 -340 159 -405 14
-16 25 -32 25 -36 0 -10 157 -168 219 -220 30 -25 70 -60 90 -77 20 -18 42
-33 49 -33 6 0 12 -4 12 -10 0 -5 7 -10 15 -10 8 0 15 -3 15 -8 0 -8 90 -51
119 -57 10 -2 34 -8 53 -13 55 -15 196 -6 261 17 143 50 404 218 515 330 87
88 102 106 102 121 0 5 5 10 10 10 6 0 10 7 10 15 0 8 5 15 11 15 5 0 7 5 4
10 -3 6 -2 10 2 10 7 0 45 70 48 90 1 3 8 21 17 41 9 20 19 45 22 57 6 17 13
20 39 15 46 -7 87 31 112 107 1 3 7 17 13 31 9 23 29 91 36 124 2 6 8 30 15
55 23 78 22 173 0 210 -18 29 -24 32 -54 27 l-34 -6 19 35 c11 19 20 35 19 37
-2 9 14 36 20 33 3 -2 6 8 7 22 0 15 3 41 7 57 3 17 9 48 12 70 19 130 25 156
44 196 22 48 49 119 59 159 4 14 7 73 7 133 0 59 3 107 7 107 3 0 27 20 52 45
39 38 61 71 71 108 2 4 3 8 5 10 6 7 13 76 11 110 -1 15 -3 16 -15 5 -8 -7
-12 -16 -9 -20 2 -5 -1 -8 -8 -8 -7 0 -9 -3 -6 -7 10 -9 -50 -63 -70 -63 -37
0 -89 21 -118 48 -26 23 -78 90 -142 182 -24 33 -173 181 -202 200 -13 8 -34
23 -46 33 -13 9 -28 17 -33 17 -6 0 -12 3 -14 8 -3 8 -99 53 -111 52 -4 0 -21
7 -37 15 -17 9 -30 13 -30 9 0 -4 -7 -1 -15 6 -9 7 -18 10 -22 7 -3 -4 -11 -3
-17 2 -6 5 -30 11 -53 14 -22 4 -52 8 -65 11 -98 20 -361 27 -463 11z"/>
<path d="M3259 1864 c-3 -67 -28 -126 -51 -121 -7 1 -14 -7 -16 -18 -2 -11 -1
-17 3 -13 4 4 16 -3 26 -16 18 -23 26 -54 29 -111 1 -29 2 -29 11 -7 5 13 10
36 11 53 1 16 6 29 10 29 4 0 8 5 8 11 0 18 42 46 66 43 16 -1 21 2 17 13 -5
12 -7 12 -14 1 -7 -11 -9 -10 -9 1 0 8 -3 12 -6 8 -10 -9 -66 22 -59 33 4 6 2
10 -2 10 -5 0 -9 21 -10 46 -2 47 -12 74 -14 38z"/>
</g>
</svg>
