<?xml version="1.0" standalone="no"?>
<!DOCTYPE svg PUBLIC "-//W3C//DTD SVG 20010904//EN"
 "http://www.w3.org/TR/2001/REC-SVG-20010904/DTD/svg10.dtd">
<svg version="1.0" xmlns="http://www.w3.org/2000/svg"
 width="700.000000pt" height="700.000000pt" viewBox="0 0 700.000000 700.000000"
 preserveAspectRatio="xMidYMid meet">
<metadata>
Created by potrace 1.11, written by Peter Selinger 2001-2013
</metadata>
<g transform="translate(0.000000,700.000000) scale(0.100000,-0.100000)"
fill="#000000" stroke="none">
<path d="M0 3500 l0 -3500 3500 0 3500 0 0 3500 0 3500 -3500 0 -3500 0 0
-3500z m3772 1981 c143 -35 186 -60 175 -101 -3 -11 -1 -20 3 -20 5 0 7 -8 6
-17 -2 -10 1 -21 7 -24 8 -6 28 -69 42 -132 2 -10 7 -27 10 -37 9 -28 16 -62
20 -98 2 -18 6 -41 9 -50 3 -9 8 -33 11 -52 3 -19 14 -75 24 -125 11 -49 17
-93 14 -97 -2 -5 0 -8 5 -8 5 0 12 -11 14 -25 3 -14 4 -25 3 -25 -2 0 -14 19
-28 43 -32 54 -127 144 -204 195 -143 92 -347 125 -513 83 -231 -57 -408 -218
-485 -442 l-30 -84 -3 -357 -3 -358 63 -1 c35 0 133 -2 218 -4 85 -2 364 -4
619 -4 347 -1 469 -5 480 -14 12 -9 13 -9 7 1 -5 8 1 12 21 11 16 -1 21 -3 11
-6 -22 -6 -27 -52 -8 -83 13 -21 13 -23 0 -15 -12 7 -13 6 -4 -6 6 -8 10 -27
9 -42 -1 -15 2 -30 7 -33 5 -3 3 -13 -4 -22 -11 -13 -11 -14 0 -8 10 6 11 -3
6 -45 -6 -43 -5 -51 7 -44 12 7 12 6 1 -7 -10 -13 -10 -18 -1 -24 8 -5 9 -3 4
6 -5 9 -4 11 4 6 9 -6 9 -11 -1 -24 -10 -12 -10 -14 0 -8 7 4 12 1 13 -8 1 -9
2 -24 3 -33 1 -10 6 -25 11 -33 5 -8 10 -28 10 -45 1 -20 5 -29 15 -27 11 3
11 0 0 -12 -7 -9 -9 -16 -5 -16 4 0 3 -6 -2 -12 -6 -7 -9 -21 -8 -31 2 -9 -1
-15 -6 -11 -8 4 -13 -15 -11 -37 1 -4 -9 -15 -21 -25 -21 -19 -21 -19 -7 1 14
18 14 19 -2 7 -10 -8 -14 -20 -11 -29 5 -12 3 -14 -7 -8 -10 6 -12 4 -7 -8 3
-9 1 -19 -5 -23 -7 -5 -8 -2 -3 7 8 12 6 12 -8 0 -9 -7 -14 -17 -11 -22 3 -5
1 -9 -3 -9 -5 0 -13 -10 -18 -22 -6 -13 -16 -22 -23 -20 -7 1 -11 -1 -11 -5 3
-20 -2 -34 -11 -28 -5 3 -10 1 -10 -5 0 -20 -269 -281 -356 -345 -22 -16 -45
-36 -51 -44 -11 -12 -13 1 -13 73 0 83 2 90 30 126 56 71 73 123 68 215 -5 93
-27 142 -95 207 -151 146 -408 87 -490 -112 -40 -98 -16 -230 56 -312 l32 -36
-1 -225 -1 -225 -49 -61 c-26 -33 -51 -57 -54 -53 -4 3 -4 -2 0 -12 4 -12 4
-17 -2 -13 -5 3 -16 -8 -23 -24 -7 -16 -17 -27 -21 -24 -5 3 -11 -4 -15 -15
-4 -11 -10 -18 -14 -16 -4 3 -13 -9 -20 -25 -7 -16 -17 -27 -22 -23 -5 3 -9 0
-9 -6 0 -21 -239 -250 -260 -250 -6 0 -8 -5 -5 -10 3 -6 1 -10 -5 -10 -7 0
-25 -13 -40 -30 -15 -16 -33 -30 -39 -30 -6 0 -15 -9 -21 -21 -7 -11 -18 -18
-25 -15 -9 3 -12 0 -9 -8 3 -8 0 -17 -7 -22 -8 -4 -10 -3 -5 4 5 8 2 10 -8 6
-9 -3 -14 -10 -11 -14 3 -4 -2 -11 -11 -14 -10 -4 -13 -2 -9 7 4 6 1 5 -7 -4
-7 -9 -21 -15 -30 -13 -10 1 -18 -1 -18 -5 0 -10 -94 -1 -107 9 -2 2 -6 3 -10
4 -19 5 -79 48 -120 86 -93 89 -194 245 -226 350 -40 132 -42 174 -42 850 0
609 1 659 19 715 23 76 70 123 147 148 31 9 63 17 72 17 16 0 17 28 18 318 0
174 2 337 5 362 25 242 79 400 199 580 73 110 214 252 322 323 136 90 320 162
478 187 100 15 328 5 427 -19z"/>
<path d="M4286 3322 c1 -26 3 -48 4 -49 1 -2 4 -12 5 -23 1 -11 4 -22 5 -25 6
-11 6 -31 1 -40 -6 -11 -8 -18 -10 -41 0 -8 -5 -12 -11 -9 -16 10 -11 -1 7
-16 9 -8 14 -9 10 -3 -3 6 0 22 8 37 8 15 11 27 8 27 -3 0 -1 6 4 13 8 11 10
29 3 42 -1 3 -3 18 -4 33 0 16 -6 35 -12 43 -6 8 -10 22 -9 31 2 10 0 20 -4
22 -4 3 -6 -16 -5 -42z m20 -38 c1 -9 0 -13 -4 -10 -3 4 -7 14 -8 22 -1 9 0
13 4 10 3 -4 7 -14 8 -22z"/>
</g>
</svg>
