<?xml version="1.0" standalone="no"?>
<!DOCTYPE svg PUBLIC "-//W3C//DTD SVG 20010904//EN"
 "http://www.w3.org/TR/2001/REC-SVG-20010904/DTD/svg10.dtd">
<svg version="1.0" xmlns="http://www.w3.org/2000/svg"
 width="1550.000000pt" height="1550.000000pt" viewBox="0 0 1550.000000 1550.000000"
 preserveAspectRatio="xMidYMid meet">
<metadata>
Created by potrace 1.11, written by Peter Selinger 2001-2013
</metadata>
<g transform="translate(0.000000,1550.000000) scale(0.100000,-0.100000)"
fill="#000000" stroke="none">
<path d="M3335 13684 c-69 -8 -221 -43 -302 -70 -367 -122 -715 -415 -904
-762 -211 -387 -254 -851 -118 -1280 135 -424 467 -789 871 -956 71 -29 355
-120 743 -237 55 -17 111 -34 125 -39 14 -5 72 -23 130 -40 58 -17 116 -35
130 -40 14 -5 72 -23 130 -40 58 -17 116 -35 130 -40 14 -5 70 -22 125 -39 55
-16 255 -78 445 -136 190 -58 390 -120 445 -136 55 -17 111 -34 125 -39 14 -5
72 -23 130 -40 58 -18 130 -40 160 -50 85 -27 157 -49 260 -80 110 -33 265
-81 580 -178 124 -39 360 -111 525 -161 165 -51 311 -96 325 -101 14 -5 72
-23 130 -40 58 -17 116 -35 130 -39 14 -5 59 -19 100 -31 41 -13 95 -30 120
-38 25 -8 59 -18 75 -22 17 -4 75 -22 130 -40 264 -84 297 -92 349 -85 28 4
56 11 61 15 6 4 24 10 40 13 17 3 47 10 68 16 91 27 114 33 137 37 14 3 34 9
45 14 11 5 31 11 45 14 23 4 65 16 135 36 17 5 64 17 105 28 72 19 181 51 246
72 17 6 37 10 46 10 9 0 21 6 27 14 10 11 -3 15 -76 21 -127 10 -183 23 -418
95 -36 11 -94 29 -130 40 -69 21 -112 34 -325 99 -74 23 -140 47 -147 54 -10
10 -9 21 3 57 9 25 25 73 35 108 11 34 28 92 40 130 11 37 24 81 29 97 5 17
18 60 29 98 34 108 60 193 80 260 19 63 235 767 292 952 17 55 35 111 39 125
5 14 21 66 36 115 28 95 40 118 55 109 6 -3 39 -14 74 -25 36 -10 94 -28 130
-39 36 -11 93 -29 128 -39 472 -144 567 -179 688 -251 223 -132 358 -318 420
-580 22 -91 16 -345 -10 -463 -60 -267 -158 -478 -300 -646 -52 -61 -173 -162
-232 -192 -22 -10 -39 -24 -39 -29 0 -6 28 -10 63 -10 84 0 226 -38 322 -86
71 -36 122 -75 257 -199 62 -57 99 -134 148 -305 7 -25 21 -72 31 -105 16 -54
25 -86 50 -180 40 -152 51 -186 61 -201 5 -6 36 -19 71 -29 34 -9 80 -23 102
-30 22 -7 74 -23 115 -35 41 -12 100 -30 130 -40 133 -42 221 -66 344 -90 77
-16 360 -16 451 -1 145 24 237 50 373 107 388 161 719 499 874 894 272 696 52
1470 -541 1897 -155 112 -312 182 -618 274 -35 11 -91 28 -125 38 -127 39
-405 123 -453 138 -27 8 -70 22 -95 30 -25 8 -58 19 -75 23 -16 4 -97 29 -180
54 -82 26 -202 63 -265 82 -63 20 -155 48 -205 64 -49 15 -137 42 -195 60 -58
17 -116 35 -130 40 -14 5 -72 23 -130 40 -137 41 -299 90 -330 100 -38 13
-202 64 -315 98 -55 17 -343 106 -640 197 -297 91 -585 180 -640 196 -55 17
-111 34 -125 39 -14 5 -72 23 -130 40 -58 17 -116 35 -130 40 -14 5 -72 23
-130 40 -157 47 -173 52 -200 61 -66 21 -802 247 -945 290 -55 17 -111 34
-125 39 -14 5 -72 23 -130 40 -58 17 -116 35 -130 40 -14 5 -72 23 -130 40
-58 17 -116 35 -130 40 -14 5 -72 23 -130 40 -58 17 -116 35 -130 40 -19 7
-700 217 -1137 351 -68 21 -154 47 -260 80 -38 11 -81 24 -98 29 -16 5 -60 18
-97 29 -278 86 -311 92 -523 96 -99 2 -198 1 -220 -1z m103 -445 c135 -42 198
-61 216 -66 21 -7 21 -14 -4 -338 -9 -123 -17 -234 -40 -540 -18 -247 -41
-550 -50 -665 -4 -63 -5 -119 0 -123 10 -11 6 -18 277 418 299 483 614 989
619 994 7 8 300 -81 315 -96 5 -5 3 -152 -6 -379 -8 -203 -19 -502 -25 -664
-6 -162 -15 -369 -19 -460 -9 -160 -5 -195 16 -168 10 13 104 175 373 643 440
767 452 787 474 782 34 -9 86 -24 161 -47 39 -12 95 -29 125 -37 30 -9 59 -19
63 -23 4 -4 -96 -173 -224 -376 -127 -203 -271 -432 -318 -509 -270 -434 -615
-982 -626 -993 -10 -11 -29 -8 -106 17 -52 16 -127 40 -168 52 l-74 23 7 360
c4 199 11 492 16 651 14 407 13 608 -2 603 -10 -4 -139 -202 -710 -1088 -83
-129 -157 -241 -164 -249 -10 -11 -27 -8 -105 17 -52 16 -126 40 -166 52 -39
12 -73 27 -75 34 -2 6 -1 88 3 181 4 94 13 310 19 480 6 171 17 486 25 700 8
215 18 489 21 610 4 121 11 225 16 232 6 8 18 8 41 1 18 -5 60 -18 95 -29z
m2811 -865 c219 -68 204 -59 197 -113 -4 -25 -15 -172 -26 -326 -11 -154 -24
-338 -30 -410 -19 -240 -30 -389 -45 -600 -9 -115 -17 -223 -18 -239 -4 -57
21 -35 90 76 39 62 189 304 335 538 145 234 308 495 361 580 129 208 118 196
153 182 16 -6 76 -25 134 -42 58 -17 116 -36 129 -41 l24 -10 -7 -182 c-16
-457 -37 -970 -46 -1157 -13 -270 -13 -343 1 -338 7 2 124 199 261 438 452
787 570 990 577 994 6 4 74 -15 319 -91 28 -8 52 -20 52 -25 0 -6 -8 -22 -19
-36 -17 -25 -403 -640 -934 -1489 -121 -194 -225 -353 -231 -353 -13 0 -327
98 -332 103 -4 4 10 669 26 1246 7 237 7 358 0 365 -5 5 -11 8 -14 5 -3 -4
-228 -352 -406 -629 -47 -74 -166 -257 -262 -406 -97 -150 -181 -281 -187
-293 -14 -25 -26 -26 -83 -7 -24 8 -97 30 -162 51 l-119 36 7 147 c4 81 13
338 21 572 18 502 31 875 45 1205 5 132 10 252 10 268 0 18 5 27 17 27 9 0 82
-20 162 -46z m5304 -1614 c275 -40 476 -135 642 -304 135 -136 214 -298 237
-484 11 -87 4 -226 -12 -251 -8 -13 -53 -2 -225 54 -22 7 -59 18 -82 24 l-43
12 0 57 c-1 150 -58 290 -160 392 -110 110 -257 170 -415 170 -232 0 -434
-148 -563 -411 -89 -183 -125 -330 -126 -524 -1 -120 3 -151 23 -215 29 -94
49 -133 101 -199 86 -109 231 -186 397 -211 193 -29 360 43 503 217 l35 42 40
-13 c22 -8 94 -31 160 -51 66 -20 125 -42 131 -48 20 -21 -62 -143 -166 -247
-105 -106 -194 -160 -326 -199 -321 -95 -746 10 -1007 249 -205 187 -308 483
-277 794 49 488 283 892 615 1058 160 80 348 112 518 88z"/>
<path d="M9167 11123 c-3 -5 -62 -195 -131 -423 -70 -228 -131 -426 -136 -440
-5 -14 -23 -72 -40 -130 -17 -58 -35 -116 -40 -130 -5 -14 -23 -72 -40 -130
-17 -58 -36 -117 -42 -132 -5 -15 -7 -31 -4 -37 9 -15 362 -123 464 -142 85
-16 221 -7 302 21 192 65 343 244 429 508 119 362 61 650 -163 818 -100 75
-125 86 -408 175 -159 50 -183 55 -191 42z"/>
<path d="M9730 9052 c-23 -3 -82 -19 -165 -42 -72 -21 -112 -32 -145 -40 -41
-10 -99 -26 -220 -61 -19 -6 -51 -14 -70 -19 -19 -4 -132 -36 -250 -69 -118
-33 -233 -66 -255 -72 -22 -6 -51 -15 -65 -19 -27 -8 -97 -28 -145 -41 -168
-44 -181 -48 -253 -78 -129 -53 -273 -208 -308 -334 -9 -32 -21 -60 -26 -63
-4 -3 -22 6 -39 20 -17 14 -35 26 -39 26 -5 0 -24 13 -42 29 -60 51 -199 101
-286 101 -52 0 -131 -14 -222 -39 -113 -31 -159 -44 -290 -81 -170 -49 -180
-52 -285 -80 -44 -12 -95 -26 -112 -31 -156 -44 -177 -50 -213 -59 -19 -5 -52
-13 -72 -19 -69 -20 -102 -29 -163 -46 -33 -8 -113 -31 -177 -50 -65 -19 -123
-35 -130 -35 -6 0 -48 -18 -92 -39 -104 -51 -178 -125 -239 -241 -41 -78 -45
-93 -51 -180 -7 -108 3 -180 38 -255 28 -63 107 -167 149 -199 58 -43 161 -95
205 -102 23 -4 45 -11 49 -17 3 -6 -11 -25 -31 -42 -36 -30 -59 -64 -121 -179
-24 -44 -27 -59 -28 -170 -1 -123 2 -140 57 -321 15 -50 31 -107 67 -245 11
-41 24 -88 29 -105 33 -112 61 -216 105 -378 32 -120 58 -180 119 -274 46 -72
71 -95 155 -145 64 -38 90 -49 134 -55 l38 -6 -39 -41 c-22 -23 -59 -77 -82
-122 -73 -140 -77 -311 -11 -451 54 -113 105 -174 198 -236 73 -48 93 -57 132
-57 77 0 83 -12 29 -65 -26 -26 -65 -84 -90 -133 -41 -79 -46 -96 -50 -176 -7
-99 1 -165 32 -276 12 -41 30 -109 41 -150 11 -41 33 -118 49 -170 15 -52 38
-133 50 -180 12 -47 26 -98 30 -115 10 -35 49 -169 60 -205 5 -14 14 -47 21
-75 24 -97 116 -251 164 -277 13 -7 55 -32 93 -55 76 -47 171 -73 262 -73 49
0 166 26 315 70 52 15 109 31 145 40 19 5 52 13 73 19 70 20 107 31 145 42 20
6 52 13 70 16 18 3 35 9 38 14 3 5 16 9 29 9 13 0 34 4 47 9 13 5 43 14 68 21
25 7 59 17 75 21 64 19 282 80 320 90 22 6 51 15 65 19 14 4 44 13 68 19 159
42 188 50 247 73 151 58 285 218 322 385 3 13 7 23 9 23 3 0 35 -22 72 -49
153 -111 298 -148 453 -119 46 9 100 21 119 27 77 22 116 33 140 37 14 3 34 9
45 14 11 5 31 11 45 14 14 2 41 9 60 14 19 6 116 33 215 61 99 28 194 55 210
59 17 5 50 15 75 22 25 7 56 16 70 20 14 4 44 13 68 19 23 6 61 16 85 22 23 6
53 15 67 19 14 4 43 13 65 19 192 52 298 87 345 114 68 38 176 140 199 187 10
19 30 58 46 85 23 39 31 72 40 152 15 131 8 186 -45 353 -10 30 -23 78 -30
105 -7 28 -35 129 -62 225 -28 96 -54 189 -59 205 -4 17 -13 48 -19 70 -6 22
-15 56 -20 75 -5 19 -14 53 -20 75 -6 22 -15 56 -20 75 -4 19 -13 51 -20 70
-14 42 -22 70 -48 170 -49 184 -64 238 -77 277 -14 41 -33 109 -77 273 -10 41
-23 89 -27 105 -21 77 -148 257 -210 298 -22 15 -43 27 -45 27 -3 0 -26 13
-51 29 -25 16 -62 32 -83 35 -78 14 -77 13 -25 65 29 30 65 82 92 136 40 78
45 98 54 190 11 122 5 163 -64 405 -6 19 -14 51 -19 70 -10 39 -12 46 -69 245
-22 77 -52 183 -66 235 -15 52 -35 127 -47 165 -11 39 -28 103 -39 143 -50
188 -58 219 -69 252 -6 19 -20 67 -30 105 -79 299 -143 506 -172 556 -68 114
-114 163 -184 198 -38 19 -76 40 -84 47 -41 34 -220 60 -320 46z m243 -213
c84 -43 138 -90 162 -143 22 -46 98 -300 155 -516 12 -47 29 -105 37 -130 9
-25 23 -76 33 -115 10 -38 25 -95 34 -125 8 -30 21 -80 30 -110 8 -30 32 -118
54 -195 22 -77 50 -178 62 -225 12 -47 29 -105 37 -130 9 -25 23 -76 33 -115
19 -72 32 -121 71 -260 26 -95 30 -196 9 -245 -20 -49 -73 -131 -101 -156 -73
-66 -80 -68 -929 -304 -162 -45 -373 -104 -468 -131 -229 -64 -291 -75 -356
-60 -167 37 -268 146 -321 346 -14 55 -33 124 -41 153 -8 28 -21 77 -29 108
-9 31 -17 59 -19 63 -3 3 -19 60 -36 126 -44 165 -61 228 -108 390 -21 77 -50
178 -62 225 -12 47 -29 104 -36 127 -8 23 -23 76 -34 118 -37 137 -62 229 -76
280 -69 241 -68 237 -48 385 15 106 139 214 294 258 19 5 53 14 75 21 22 6
177 49 345 96 168 47 321 89 340 95 19 5 85 23 145 40 61 16 124 34 140 39 56
16 110 31 250 71 172 48 288 54 358 19z m-2395 -678 c40 -28 107 -103 127
-141 21 -40 73 -216 155 -525 17 -66 33 -122 35 -126 2 -3 14 -41 25 -85 12
-43 28 -103 36 -131 8 -29 21 -78 29 -108 19 -72 19 -130 -1 -211 -14 -55 -26
-76 -70 -123 -53 -57 -105 -87 -194 -111 -25 -7 -56 -16 -70 -20 -14 -4 -63
-18 -110 -30 -47 -13 -112 -31 -145 -40 -114 -33 -360 -103 -395 -112 -19 -5
-48 -13 -65 -18 -16 -5 -66 -18 -110 -30 -44 -12 -96 -26 -115 -31 -19 -6 -49
-14 -65 -18 -35 -9 -75 -29 -75 -37 0 -11 52 -200 72 -261 18 -58 22 -63 48
-63 16 0 39 4 52 9 24 9 66 21 133 39 88 23 131 35 155 42 34 10 87 25 135 38
22 7 96 28 165 47 69 19 143 40 165 46 22 6 51 15 65 19 14 4 45 13 70 20 147
38 192 51 218 61 37 15 151 10 208 -8 37 -11 69 -32 109 -70 94 -90 134 -210
103 -310 -9 -26 -19 -61 -22 -76 -8 -33 -83 -118 -130 -146 -17 -11 -170 -58
-341 -106 -339 -94 -584 -163 -1005 -281 -325 -92 -377 -98 -472 -50 -32 15
-78 46 -102 67 -53 47 -74 98 -150 379 -30 107 -84 303 -121 435 -99 352 -105
375 -104 430 1 86 57 194 127 247 53 39 59 41 517 168 638 176 760 211 775
219 18 11 18 16 -10 116 -12 44 -26 99 -32 122 -5 23 -15 46 -21 51 -8 5 -119
-22 -307 -75 -162 -45 -376 -105 -475 -133 -99 -27 -245 -68 -325 -91 -182
-51 -226 -49 -339 12 -103 55 -115 68 -144 158 -42 126 -38 184 18 286 53 96
115 130 355 195 168 46 260 71 285 79 49 14 104 29 220 61 61 16 124 34 140
39 17 5 107 30 200 56 94 26 233 65 310 86 202 56 208 58 230 63 11 3 62 3
112 1 73 -3 99 -8 121 -24z m3186 -2177 c109 -54 179 -139 206 -246 5 -18 17
-67 29 -108 11 -41 29 -106 39 -145 11 -38 32 -110 46 -160 15 -49 41 -142 57
-205 17 -63 35 -128 39 -145 60 -210 74 -262 105 -383 13 -50 26 -96 29 -100
2 -4 30 -100 60 -212 51 -188 76 -277 109 -384 6 -22 12 -74 12 -116 0 -68 -4
-84 -35 -145 -35 -66 -82 -112 -165 -158 -28 -15 -207 -69 -445 -134 -106 -29
-257 -71 -332 -92 -18 -5 -69 -19 -113 -31 -44 -12 -93 -25 -110 -30 -16 -4
-55 -15 -85 -23 -30 -9 -145 -41 -255 -72 -200 -57 -200 -57 -303 -51 -127 7
-159 22 -231 110 -65 79 -85 133 -192 526 -27 102 -55 201 -61 220 -21 67 -26
86 -48 170 -12 47 -38 139 -57 205 -19 66 -59 208 -89 315 -31 107 -59 209
-64 225 -4 17 -20 73 -34 125 -13 52 -34 131 -46 175 -26 97 -21 224 11 291
31 66 128 159 191 182 29 11 226 68 438 127 212 59 543 152 735 206 325 92
355 99 426 96 59 -3 87 -10 133 -33z m-2431 -663 c52 -23 151 -126 177 -183
10 -24 33 -97 50 -163 18 -66 40 -149 50 -185 10 -36 41 -150 70 -255 28 -104
63 -226 77 -270 36 -115 40 -203 14 -291 -18 -60 -29 -79 -75 -124 -30 -29
-69 -59 -88 -67 -18 -8 -211 -64 -428 -124 -930 -259 -820 -226 -820 -249 0
-11 4 -29 9 -42 5 -13 24 -79 42 -146 18 -68 38 -130 44 -138 8 -12 29 -9 135
21 69 19 143 40 165 46 22 6 51 15 65 19 27 8 61 18 180 50 41 11 89 24 105
29 148 42 464 131 523 147 122 32 232 12 322 -59 79 -63 111 -129 112 -234 0
-44 -5 -90 -11 -101 -6 -11 -11 -32 -11 -47 0 -18 -15 -41 -52 -77 -67 -63
-98 -79 -233 -117 -61 -17 -123 -35 -140 -40 -27 -7 -65 -18 -150 -40 -48 -13
-118 -33 -145 -41 -28 -9 -23 -7 -338 -95 -128 -36 -258 -72 -290 -81 -62 -17
-104 -29 -154 -43 -63 -18 -193 -53 -228 -60 -19 -5 -39 -10 -45 -12 -23 -7
-170 13 -199 28 -56 29 -105 75 -124 117 -10 22 -44 131 -75 241 -31 110 -92
329 -137 488 -114 408 -121 438 -105 495 24 94 72 165 141 213 47 32 63 38
184 70 41 11 89 24 105 29 70 20 112 32 135 36 14 3 34 9 45 14 11 5 31 11 45
14 24 4 61 14 140 37 19 6 46 13 60 15 14 3 34 9 45 14 11 4 88 27 170 50 83
23 164 45 180 50 17 5 48 14 70 20 22 7 54 14 72 17 36 6 48 28 34 64 -5 13
-21 65 -36 114 -14 50 -30 97 -34 105 -10 17 -48 17 -106 0 -22 -6 -51 -14
-65 -16 -14 -3 -34 -9 -45 -14 -11 -4 -72 -23 -135 -40 -124 -34 -160 -44
-215 -60 -93 -27 -112 -32 -145 -40 -35 -9 -84 -22 -150 -41 -19 -6 -46 -13
-60 -15 -14 -3 -34 -9 -45 -14 -11 -5 -31 -11 -45 -14 -14 -2 -43 -10 -65 -16
-22 -6 -53 -14 -70 -17 -16 -3 -36 -10 -42 -15 -7 -6 -53 -10 -103 -9 -81 0
-96 4 -150 32 -107 58 -151 122 -184 268 -13 61 30 179 91 251 45 52 110 82
278 128 217 61 448 125 705 197 416 117 694 193 720 198 43 9 139 -3 183 -22z"/>
<path d="M9455 8094 c-66 -19 -248 -70 -404 -114 -157 -44 -289 -84 -295 -90
-11 -11 -2 -55 46 -215 33 -110 45 -153 58 -205 5 -19 14 -53 20 -75 6 -22 15
-56 20 -75 5 -19 13 -51 19 -70 5 -19 13 -46 16 -60 4 -14 10 -34 15 -45 5
-11 11 -31 14 -45 2 -14 10 -43 16 -65 6 -22 15 -56 20 -75 11 -43 22 -83 50
-180 12 -41 27 -94 33 -117 10 -38 15 -43 41 -43 16 0 43 4 60 10 17 5 72 21
121 36 50 14 101 29 115 34 14 4 45 13 70 20 147 38 192 51 218 61 13 5 34 9
47 9 13 0 27 5 30 10 3 6 17 10 30 10 13 0 34 4 47 9 13 5 34 12 48 15 14 3
33 11 44 19 18 13 18 15 -2 78 -12 35 -42 141 -67 234 -25 94 -54 199 -65 235
-12 36 -46 157 -77 270 -97 356 -120 437 -127 449 -10 16 -28 13 -161 -25z"/>
<path d="M10355 5271 c-11 -5 -39 -14 -62 -20 -24 -6 -62 -16 -85 -22 -24 -6
-53 -15 -66 -20 -13 -5 -34 -9 -47 -9 -13 0 -27 -4 -30 -10 -3 -5 -19 -10 -35
-10 -16 0 -32 -4 -35 -10 -3 -5 -17 -10 -30 -10 -13 0 -34 -4 -47 -9 -13 -5
-43 -14 -68 -21 -25 -7 -58 -17 -75 -21 -16 -5 -75 -22 -130 -38 -115 -33
-118 -37 -87 -128 11 -32 24 -77 31 -100 6 -24 16 -62 22 -85 12 -45 20 -73
40 -148 6 -25 20 -70 29 -100 10 -30 30 -100 45 -155 14 -55 33 -125 42 -155
8 -30 18 -71 23 -90 4 -19 14 -55 22 -80 14 -43 24 -77 49 -172 23 -87 29 -98
60 -98 15 0 38 4 51 9 13 5 39 13 58 18 19 6 53 15 75 22 22 6 162 45 310 86
336 93 343 95 348 109 2 6 -14 74 -36 151 -21 77 -67 241 -102 365 -52 186
-177 635 -204 730 -8 27 -33 35 -66 21z"/>
<path d="M10800 7919 c0 -20 23 -69 33 -69 4 0 7 7 7 15 0 8 8 15 18 16 13 0
14 2 2 6 -8 3 -25 15 -37 26 -18 16 -23 17 -23 6z"/>
<path d="M11760 3289 c0 -5 5 -7 10 -4 6 3 10 8 10 11 0 2 -4 4 -10 4 -5 0
-10 -5 -10 -11z"/>
<path d="M11675 3210 c-3 -5 -1 -10 4 -10 6 0 11 5 11 10 0 6 -2 10 -4 10 -3
0 -8 -4 -11 -10z"/>
<path d="M11050 2949 c0 -5 5 -7 10 -4 6 3 10 8 10 11 0 2 -4 4 -10 4 -5 0
-10 -5 -10 -11z"/>
<path d="M10905 2910 c3 -5 13 -10 21 -10 8 0 14 5 14 10 0 6 -9 10 -21 10
-11 0 -17 -4 -14 -10z"/>
<path d="M10685 2850 c-3 -5 -1 -10 4 -10 6 0 11 5 11 10 0 6 -2 10 -4 10 -3
0 -8 -4 -11 -10z"/>
<path d="M10608 2823 c7 -3 16 -2 19 1 4 3 -2 6 -13 5 -11 0 -14 -3 -6 -6z"/>
<path d="M10516 2801 c-3 -4 6 -6 19 -3 14 2 25 6 25 8 0 8 -39 4 -44 -5z"/>
<path d="M10388 2763 c7 -3 16 -2 19 1 4 3 -2 6 -13 5 -11 0 -14 -3 -6 -6z"/>
<path d="M10318 2743 c6 -2 18 -2 25 0 6 3 1 5 -13 5 -14 0 -19 -2 -12 -5z"/>
<path d="M10173 2703 c9 -2 23 -2 30 0 6 3 -1 5 -18 5 -16 0 -22 -2 -12 -5z"/>
<path d="M10088 2683 c6 -2 18 -2 25 0 6 3 1 5 -13 5 -14 0 -19 -2 -12 -5z"/>
<path d="M9370 2652 c0 -11 51 -35 58 -27 3 3 1 9 -4 14 -14 14 -54 23 -54 13z"/>
<path d="M9548 2603 c7 -3 16 -2 19 1 4 3 -2 6 -13 5 -11 0 -14 -3 -6 -6z"/>
<path d="M9310 2590 c0 -5 5 -10 10 -10 6 0 10 5 10 10 0 6 -4 10 -10 10 -5 0
-10 -4 -10 -10z"/>
<path d="M9270 2540 c-9 -6 -10 -10 -3 -10 6 0 15 5 18 10 8 12 4 12 -15 0z"/>
<path d="M9167 2455 c-15 -14 -25 -25 -22 -25 14 0 65 31 65 40 0 16 -13 11
-43 -15z"/>
<path d="M9048 2393 c7 -3 16 -2 19 1 4 3 -2 6 -13 5 -11 0 -14 -3 -6 -6z"/>
<path d="M8988 2373 c7 -3 16 -2 19 1 4 3 -2 6 -13 5 -11 0 -14 -3 -6 -6z"/>
<path d="M8908 2353 c7 -3 16 -2 19 1 4 3 -2 6 -13 5 -11 0 -14 -3 -6 -6z"/>
<path d="M8680 2290 c-12 -8 -9 -10 13 -10 15 0 27 5 27 10 0 13 -20 13 -40 0z"/>
<path d="M8579 2264 c-11 -14 -10 -15 11 -12 13 1 25 9 28 16 5 17 -23 15 -39
-4z"/>
<path d="M8515 2250 c-4 -6 3 -10 14 -10 25 0 27 6 6 13 -8 4 -17 2 -20 -3z"/>
<path d="M8455 2229 c-9 -14 -2 -20 14 -10 8 6 9 11 3 15 -6 3 -14 1 -17 -5z"/>
<path d="M8383 2199 c14 -8 22 -8 30 0 8 8 3 11 -18 11 -26 -1 -28 -2 -12 -11z"/>
<path d="M8290 2175 c0 -8 2 -15 4 -15 2 0 6 7 10 15 3 8 1 15 -4 15 -6 0 -10
-7 -10 -15z"/>
<path d="M8328 2183 c7 -3 16 -2 19 1 4 3 -2 6 -13 5 -11 0 -14 -3 -6 -6z"/>
<path d="M8215 2160 c-3 -5 -22 -10 -41 -10 -19 0 -34 -5 -34 -11 0 -7 9 -9
23 -5 12 3 29 6 38 6 8 0 24 7 35 15 17 13 17 14 2 15 -9 0 -20 -4 -23 -10z"/>
<path d="M8085 2120 c3 -5 10 -10 16 -10 5 0 9 5 9 10 0 6 -7 10 -16 10 -8 0
-12 -4 -9 -10z"/>
<path d="M7945 2080 c-3 -5 -2 -10 4 -10 5 0 13 5 16 10 3 6 2 10 -4 10 -5 0
-13 -4 -16 -10z"/>
<path d="M7847 2063 c-12 -11 -8 -23 7 -23 7 0 19 7 26 15 10 12 9 15 -7 15
-11 0 -23 -3 -26 -7z"/>
<path d="M7773 2025 c-15 -33 1 -41 21 -10 19 29 20 35 4 35 -7 0 -18 -11 -25
-25z"/>
<path d="M7620 1990 c-8 -15 -8 -20 3 -20 14 0 37 19 37 32 0 16 -30 7 -40
-12z"/>
<path d="M7545 1970 c-16 -18 -16 -20 -2 -20 10 0 17 5 17 10 0 6 9 10 21 10
11 0 17 5 14 10 -10 16 -30 12 -50 -10z"/>
<path d="M7480 1960 c-13 -8 -12 -10 3 -10 9 0 17 5 17 10 0 12 -1 12 -20 0z"/>
<path d="M7418 1933 c7 -3 16 -2 19 1 4 3 -2 6 -13 5 -11 0 -14 -3 -6 -6z"/>
<path d="M7303 1908 c-13 -6 -23 -17 -23 -25 0 -19 13 -16 27 6 7 11 23 21 35
24 19 3 19 4 3 5 -11 0 -30 -4 -42 -10z"/>
<path d="M7168 1893 c6 -2 18 -2 25 0 6 3 1 5 -13 5 -14 0 -19 -2 -12 -5z"/>
</g>
</svg>
