<svg xmlns="http://www.w3.org/2000/svg" xmlns:xlink="http://www.w3.org/1999/xlink" id="Ebene_1" x="0" y="0" version="1.1" viewBox="0 0 457 457" xml:space="preserve" style="enable-background:new 0 0 457 457"><style type="text/css">.st0{fill:#ff3a13}.st1{fill:none;stroke:#009cfd;stroke-width:6.7941;stroke-linecap:round;stroke-linejoin:round;stroke-miterlimit:10}.st2{fill:#9029ef}.st3,.st4{fill:none;stroke:#2c25d0;stroke-width:4.4983;stroke-linecap:round;stroke-linejoin:round;stroke-miterlimit:9.9999}.st4{fill:#4265cf;stroke:#4265cf;stroke-width:3.5987}.st5{fill:#250b73}.st6{fill:none;stroke:#323ad0;stroke-width:3.9613;stroke-linecap:round;stroke-linejoin:round;stroke-miterlimit:10}.st7{fill:#410373}.st8,.st9{fill:none;stroke:#2c25d0;stroke-width:4.4984;stroke-linecap:round;stroke-linejoin:round;stroke-miterlimit:10.0003}.st9{fill:#4265cf;stroke:#4265cf;stroke-width:3.5988}.st10{fill:#8000a8}.st11{fill:#fd6c17}.st12{fill:#c31aed}.st13{fill:#fff}.st14{fill:none;stroke:#fd6c17;stroke-width:12.5498;stroke-linecap:round;stroke-linejoin:round;stroke-miterlimit:10}.st15{fill:#f85800}.st16{fill:#ffba00}.st17{fill:#a32ff3}.st18{fill:none;stroke:#fd6202;stroke-width:8.6419;stroke-linecap:round;stroke-miterlimit:10}.st19{fill:#fd162f}.st20{fill:#fd6202}.st21{fill:#c502f3}.st22{fill:#8a00e1}.st23,.st24{fill:none;stroke-linecap:round;stroke-miterlimit:10}.st23{stroke:#fd6c17;stroke-width:7.7688;stroke-linejoin:round}.st24{stroke:#fd6202;stroke-width:10.2934}.st25{fill:#d30060}</style><g><g><g><path d="M137,120.7l-0.3,5.9c-0.1,1.4,1,2.6,2.4,2.7l0,0c1.4,0.1,2.6-1,2.7-2.4l0.3-5.9c0.1-1.4-1-2.6-2.4-2.7l0,0 C138.3,118.2,137.1,119.2,137,120.7z" class="st0"/><path d="M136.2,125.5l6.3,0.5c1.4,0.1,2.5,1.4,2.4,2.8l0,0c-0.1,1.4-1.4,2.5-2.8,2.4l-6.3-0.5 c-1.4-0.1-2.5-1.4-2.4-2.8l0,0C133.5,126.4,134.8,125.4,136.2,125.5z" class="st0"/></g><path d="M221.5,264.9l-53.4,25.9c-14.1,6.8-31,2.5-40.2-10.2l0,0c-13-18-4.2-43.5,17.2-49.7l86.7-25.1 c22.5-6.5,32.5-32.8,19.9-52.6l0,0c-9.6-15.2-29.2-20.7-45.3-12.7l-26,12.8" class="st1"/><g><g><path d="M140.8,168.9l10.5,12.6c7.7,9.2,22.2,8,28.3-2.3l0,0c6.1-10.3,0.2-23.6-11.5-25.9l-16.1-3.2 c-4.8-1-9.7,1.2-12.2,5.4l0,0C137.2,159.8,137.6,165.2,140.8,168.9z" class="st2"/></g><g><ellipse cx="188" cy="147.6" class="st3" rx="6.7" ry="16.5" transform="matrix(0.9373 -0.3485 0.3485 0.9373 -39.6547 74.7697)"/><rect width="33.3" height="30.4" x="154.2" y="138.9" class="st4" transform="matrix(0.9373 -0.3485 0.3485 0.9373 -42.9806 69.1847)"/><ellipse cx="155.2" cy="159.8" class="st5" rx="5.8" ry="15.2" transform="matrix(0.9373 -0.3485 0.3485 0.9373 -45.9589 64.1012)"/><ellipse cx="155.2" cy="159.8" class="st3" rx="6.7" ry="16.5" transform="matrix(0.9373 -0.3485 0.3485 0.9373 -45.9589 64.1012)"/><ellipse cx="186.4" cy="148.2" class="st4" rx="5.8" ry="15.2" transform="matrix(0.9373 -0.3485 0.3485 0.9373 -39.9589 74.2459)"/><path d="M173.1,168.3c0.6-3.4-0.1-8.7-2.1-14.3c-2-5.4-4.8-9.8-7.5-12" class="st6"/><path d="M179.6,165.8c0.6-3.4-0.1-8.7-2.1-14.3c-2-5.4-4.8-9.8-7.5-12" class="st6"/><path d="M186.2,163.4c0.6-3.4-0.1-8.7-2.1-14.3c-2-5.4-4.8-9.8-7.5-12" class="st6"/></g></g><g><path d="M240.5,311.7l11.2,6.8c8.1,4.9,18.7,2.4,23.7-5.8l0,0c4.9-8.1,2.4-18.7-5.8-23.7l-32.4-19.7 c-2.3-1.4-5.2-0.7-6.6,1.6l0,0C222.1,285,226.5,303.2,240.5,311.7z" class="st7"/><g><ellipse cx="201.3" cy="277.2" class="st8" rx="6.7" ry="16.5" transform="matrix(0.9143 -0.4051 0.4051 0.9143 -95.0354 105.3177)"/><rect width="33.3" height="30.4" x="201.5" y="254.5" class="st9" transform="matrix(0.9143 -0.4051 0.4051 0.9143 -90.5511 111.491)"/><ellipse cx="233.3" cy="263" class="st5" rx="5.8" ry="15.2" transform="matrix(0.9143 -0.4051 0.4051 0.9143 -86.5448 117.0642)"/><ellipse cx="233.3" cy="263" class="st8" rx="6.7" ry="16.5" transform="matrix(0.9143 -0.4051 0.4051 0.9143 -86.5448 117.0642)"/><ellipse cx="202.9" cy="276.4" class="st9" rx="5.8" ry="15.2" transform="matrix(0.9143 -0.4051 0.4051 0.9143 -94.5816 105.8843)"/><path d="M226.4,281.5c-2.8-2-6-6.3-8.5-11.7c-2.3-5.3-3.4-10.4-3-13.8" class="st6"/><path d="M220,284.4c-2.8-2-6-6.3-8.5-11.7c-2.3-5.3-3.4-10.4-3-13.8" class="st6"/><path d="M213.6,287.2c-2.8-2-6-6.3-8.5-11.7c-2.3-5.3-3.4-10.4-3-13.8" class="st6"/></g><g><path d="M282.3,229.6l6.8,22.2c1.2,4,6.3,5.1,9.1,2.1l15.9-17c2.8-3,1.3-8-2.7-8.9l-22.6-5.2 C284.6,221.9,281.1,225.6,282.3,229.6z" class="st10"/><g><rect width="73.3" height="10.7" x="244.3" y="336" class="st11" transform="matrix(0.8475 -0.5308 0.5308 0.8475 -138.3466 201.1899)"/><circle cx="286.3" cy="335.8" r="16.6" class="st7"/><path d="M257,372.4l-14.7-23.5c-1.7-2.6-0.9-6.1,1.8-7.8l0,0c2.6-1.7,6.1-0.9,7.8,1.8l14.7,23.5 c1.7,2.6,0.9,6.1-1.8,7.8l0,0C262.2,375.9,258.7,375.1,257,372.4z" class="st11"/></g><g><rect width="10.7" height="73.3" x="305.6" y="311.6" class="st11" transform="matrix(0.9751 -0.2218 0.2218 0.9751 -69.5002 77.6422)"/><path d="M331.1,381.3l-26.9,6.1c-3,0.7-6.1-1.2-6.8-4.3l0,0c-0.7-3,1.2-6.1,4.3-6.8l26.9-6.1 c3-0.7,6.1,1.2,6.8,4.3l0,0C336.1,377.6,334.2,380.6,331.1,381.3z" class="st11"/><circle cx="307.9" cy="335.9" r="16.6" class="st10"/></g><g><path d="M339.1,339.4l-41.9,5.4c-17.4,2.2-33.4-10.1-35.6-27.5l0,0c-2.2-17.4,10.1-33.4,27.5-35.6l41.9-5.4 c17.4-2.2,33.4,10.1,35.6,27.5l0,0C368.9,321.2,356.6,337.1,339.1,339.4z" class="st10"/><path d="M285.8,313.4L285.8,313.4c-14.3-0.7-25.3-12.8-24.7-27.1l0.7-15.6c0.7-14.3,12.8-25.3,27.1-24.7l0,0 c14.3,0.7,25.3,12.8,24.7,27.1l-0.7,15.6C312.2,303,300.1,314.1,285.8,313.4z" class="st12"/><path d="M298.8,269.5c-0.3,6.1-4.9-1.5-11-1.8s-11.4,6.8-11.1,0.7s5.4-10.8,11.5-10.5S299.1,263.4,298.8,269.5z" class="st13"/><rect width="24.9" height="11.1" x="277.9" y="274.6" class="st12" transform="matrix(0.9992 -3.980867e-02 3.980867e-02 0.9992 -10.9222 11.7804)"/><path d="M328.7,276.5l32.9-29c4.5-4,11.5-0.3,10.8,5.6l-6.2,60.7L328.7,276.5z" class="st10"/></g><g><path d="M350.8,313l-11.8,5.7c-8.6,4.1-18.9,0.6-23-8l0,0c-4.1-8.6-0.6-18.9,8-23l34.1-16.5 c2.4-1.2,5.3-0.2,6.4,2.2l0,0C371.7,288.1,365.5,305.9,350.8,313z" class="st12"/></g><polyline points="258.6 248.5 265.6 265.1 252.9 273.4" class="st14"/></g></g><g><g><g><g><g><path d="M128,209.2h23.5c3.2,0,5.8-2.6,5.8-5.8l0,0c0-3.2-2.6-5.8-5.8-5.8H128c-3.2,0-5.8,2.6-5.8,5.8l0,0 C122.3,206.6,124.8,209.2,128,209.2z" class="st15"/></g></g><g><path d="M132.5,128l11.9,1.9c14.2,2.2,23.9,15.5,21.7,29.7l-1.9,11.9c-3.3,21.1-22.9,36-44.1,32.8 C99,201,84.5,181.2,87.8,160C91.2,138.9,111.4,124.7,132.5,128z" class="st16"/></g><circle cx="135.2" cy="147.6" r="10" class="st13"/><circle cx="133.7" cy="161.5" r="10" class="st16"/><path d="M161.1,155.6l9.5,2.7c5.5,1.6,8.6,7.2,7.1,12.7l0,0c-1.6,5.5-7.2,8.6-12.7,7.1l-9.5-2.7 c-2-0.6-3.2-2.7-2.7-4.8l3.5-12.4C157,156.3,159.1,155.1,161.1,155.6z" class="st15"/></g></g><path d="M134.9,209.2h-23.5c-3.2,0-5.8-2.6-5.8-5.8l0,0c0-3.2,2.6-5.8,5.8-5.8h23.5c3.2,0,5.8,2.6,5.8,5.8l0,0 C140.7,206.6,138.1,209.2,134.9,209.2z" class="st15"/><g><path d="M101.8,172.6l-16-3.8c-11.7-2.8-17-16.3-10.5-26.3l0,0c6.5-10.1,21-10.7,28.4-1.2l10,13 c3,3.9,3.2,9.2,0.5,13.4l0,0C111.6,171.8,106.6,173.8,101.8,172.6z" class="st17"/></g></g><g><line x1="149.6" x2="160.1" y1="108.7" y2="114.1" class="st18"/><g><path d="M143,98.3c-5.3,2.5-11.7,0.3-14.2-5l-6.5-13.6c-0.7-1.5-0.1-3.3,1.4-4l2.9-1.4c7-3.4,15.5-0.4,18.8,6.7 l2.1,4.4C149.8,90.2,147.8,96,143,98.3L143,98.3z" class="st17"/><circle cx="136" cy="101.2" r="20.9" class="st19"/><circle cx="141.8" cy="102" r="7.1" class="st13"/><g><path d="M127.6,119.9l-0.3,5.9c-0.1,1.4,1,2.6,2.4,2.7l0,0c1.4,0.1,2.6-1,2.7-2.4l0.3-5.9c0.1-1.4-1-2.6-2.4-2.7 l0,0C128.9,117.4,127.7,118.5,127.6,119.9z" class="st20"/><path d="M126.9,124.7l6.3,0.5c1.4,0.1,2.5,1.4,2.4,2.8l0,0c-0.1,1.4-1.4,2.5-2.8,2.4l-6.3-0.5 c-1.4-0.1-2.5-1.4-2.4-2.8l0,0C124.2,125.7,125.4,124.6,126.9,124.7z" class="st20"/></g></g><rect width="9.9" height="22.3" x="130.4" y="96.6" class="st19" transform="matrix(0.508 -0.8614 0.8614 0.508 -26.2634 169.5974)"/></g><g><g><path d="M206,358.1c0.5,1.1,0,2.5-1.1,3l0,0c-1.1,0.5-2.5,0-3-1.1l-3.3-7.4c-0.5-1.1,0-2.5,1.1-3l0,0 c1.1-0.5,2.5,0,3,1.1L206,358.1z" class="st20"/><path d="M198.6,361.4c0.5,1.1,0,2.5-1.1,3l0,0c-1.2,0.5-2.5,0-3-1.1l-3.3-7.4c-0.5-1.1,0-2.5,1.1-3l0,0 c1.1-0.5,2.5,0,3,1.1L198.6,361.4z" class="st20"/><path d="M192.1,364.1l16-7.2c1.2-0.6,2.7,0,3.3,1.2l0,0c0.6,1.2,0,2.7-1.2,3.3l-16,7.2c-1.2,0.6-2.7,0-3.3-1.2l0,0 C190.3,366.1,190.9,364.7,192.1,364.1z" class="st20"/><circle cx="185.6" cy="316.5" r="8.3" class="st21"/><circle cx="190.2" cy="339.4" r="19.8" class="st22"/><circle cx="191.3" cy="334.8" r="7.2" class="st13"/></g><rect width="22.7" height="10.1" x="183.5" y="338" class="st22" transform="matrix(0.8287 -0.5597 0.5597 0.8287 -158.6305 167.8304)"/><polyline points="216 331.1 207.1 329.5 208.7 320.2" class="st23"/></g><polyline points="289.8 141.8 299 151.5 291.3 161.1" class="st24"/><circle cx="326.6" cy="129" r="12.9" class="st25"/><g><g><path d="M325.5,177.3l-1.4,7c-0.3,1.7-1.9,2.7-3.6,2.4l0,0c-1.7-0.3-2.7-1.9-2.4-3.6l1.4-7 c0.3-1.7,1.9-2.7,3.6-2.4l0,0C324.7,174,325.8,175.6,325.5,177.3z" class="st20"/><path d="M325,183.1l-7.4-1.2c-1.7-0.3-3.3,0.9-3.5,2.6l0,0c-0.3,1.7,0.9,3.3,2.6,3.5l7.4,1.2 c1.7,0.3,3.3-0.9,3.5-2.6l0,0C327.8,184.9,326.7,183.3,325,183.1z" class="st20"/></g><circle cx="322" cy="154.3" r="24.9" class="st16"/><circle cx="315.2" cy="152.9" r="8.4" class="st13"/><g><path d="M340.4,165.2l6.3,3.3c1.5,0.8,2.1,2.6,1.3,4.1l0,0c-0.8,1.5-2.6,2.1-4.1,1.3l-6.3-3.3 c-1.5-0.8-2.1-2.6-1.3-4.1l0,0C337,165,338.9,164.4,340.4,165.2z" class="st20"/><path d="M345.8,167.4l-3.3,6.8c-0.7,1.5-0.1,3.4,1.5,4.1l0,0c1.5,0.7,3.4,0.1,4.1-1.5l3.3-6.8 c0.7-1.5,0.1-3.4-1.5-4.1l0,0C348.4,165.2,346.5,165.8,345.8,167.4z" class="st20"/></g></g><rect width="26.5" height="11.8" x="309.3" y="154" class="st16" transform="matrix(0.8402 -0.5422 0.5422 0.8402 -35.1721 200.4488)"/><circle cx="345.2" cy="138.7" r="12.9" class="st19"/></g></g></svg>