<?xml version="1.0" encoding="utf-8"?>
<!-- Generator: Adobe Illustrator 25.2.3, SVG Export Plug-In . SVG Version: 6.00 Build 0)  -->
<svg version="1.1" id="Ebene_1" xmlns="http://www.w3.org/2000/svg" xmlns:xlink="http://www.w3.org/1999/xlink" x="0px" y="0px"
	 viewBox="0 0 457 457" style="enable-background:new 0 0 457 457;" xml:space="preserve">
<style type="text/css">
	.st0{fill:#FF3A13;}
	.st1{fill:none;stroke:#009CFD;stroke-width:6.7941;stroke-linecap:round;stroke-linejoin:round;stroke-miterlimit:10;}
	.st2{fill:#9029EF;}
	.st3{fill:none;stroke:#2C25D0;stroke-width:4.4983;stroke-linecap:round;stroke-linejoin:round;stroke-miterlimit:9.9999;}
	.st4{fill:#4265CF;stroke:#4265CF;stroke-width:3.5987;stroke-linecap:round;stroke-linejoin:round;stroke-miterlimit:9.9999;}
	.st5{fill:#250B73;}
	.st6{fill:none;stroke:#323AD0;stroke-width:3.9613;stroke-linecap:round;stroke-linejoin:round;stroke-miterlimit:10;}
	.st7{fill:#410373;}
	.st8{fill:none;stroke:#2C25D0;stroke-width:4.4984;stroke-linecap:round;stroke-linejoin:round;stroke-miterlimit:10.0003;}
	.st9{fill:#4265CF;stroke:#4265CF;stroke-width:3.5988;stroke-linecap:round;stroke-linejoin:round;stroke-miterlimit:10.0003;}
	.st10{fill:#8000A8;}
	.st11{fill:#FD6C17;}
	.st12{fill:#C31AED;}
	.st13{fill:#FFFFFF;}
	.st14{fill:none;stroke:#FD6C17;stroke-width:12.5498;stroke-linecap:round;stroke-linejoin:round;stroke-miterlimit:10;}
	.st15{fill:#F85800;}
	.st16{fill:#FFBA00;}
	.st17{fill:#A32FF3;}
	.st18{fill:none;stroke:#FD6202;stroke-width:8.6419;stroke-linecap:round;stroke-miterlimit:10;}
	.st19{fill:#FD162F;}
	.st20{fill:#FD6202;}
	.st21{fill:#C502F3;}
	.st22{fill:#8A00E1;}
	.st23{fill:none;stroke:#FD6C17;stroke-width:7.7688;stroke-linecap:round;stroke-linejoin:round;stroke-miterlimit:10;}
	.st24{fill:none;stroke:#FD6202;stroke-width:10.2934;stroke-linecap:round;stroke-miterlimit:10;}
	.st25{fill:#D30060;}
</style>
<g>
	<g>
		<g>
			<path class="st0" d="M137,120.7l-0.3,5.9c-0.1,1.4,1,2.6,2.4,2.7l0,0c1.4,0.1,2.6-1,2.7-2.4l0.3-5.9c0.1-1.4-1-2.6-2.4-2.7l0,0
				C138.3,118.2,137.1,119.2,137,120.7z"/>
			<path class="st0" d="M136.2,125.5l6.3,0.5c1.4,0.1,2.5,1.4,2.4,2.8l0,0c-0.1,1.4-1.4,2.5-2.8,2.4l-6.3-0.5
				c-1.4-0.1-2.5-1.4-2.4-2.8l0,0C133.5,126.4,134.8,125.4,136.2,125.5z"/>
		</g>
		<path class="st1" d="M221.5,264.9l-53.4,25.9c-14.1,6.8-31,2.5-40.2-10.2l0,0c-13-18-4.2-43.5,17.2-49.7l86.7-25.1
			c22.5-6.5,32.5-32.8,19.9-52.6l0,0c-9.6-15.2-29.2-20.7-45.3-12.7l-26,12.8"/>
		<g>
			<g>
				<path class="st2" d="M140.8,168.9l10.5,12.6c7.7,9.2,22.2,8,28.3-2.3l0,0c6.1-10.3,0.2-23.6-11.5-25.9l-16.1-3.2
					c-4.8-1-9.7,1.2-12.2,5.4l0,0C137.2,159.8,137.6,165.2,140.8,168.9z"/>
			</g>
			<g>
				
					<ellipse transform="matrix(0.9373 -0.3485 0.3485 0.9373 -39.6547 74.7697)" class="st3" cx="188" cy="147.6" rx="6.7" ry="16.5"/>
				
					<rect x="154.2" y="138.9" transform="matrix(0.9373 -0.3485 0.3485 0.9373 -42.9806 69.1847)" class="st4" width="33.3" height="30.4"/>
				
					<ellipse transform="matrix(0.9373 -0.3485 0.3485 0.9373 -45.9589 64.1012)" class="st5" cx="155.2" cy="159.8" rx="5.8" ry="15.2"/>
				
					<ellipse transform="matrix(0.9373 -0.3485 0.3485 0.9373 -45.9589 64.1012)" class="st3" cx="155.2" cy="159.8" rx="6.7" ry="16.5"/>
				
					<ellipse transform="matrix(0.9373 -0.3485 0.3485 0.9373 -39.9589 74.2459)" class="st4" cx="186.4" cy="148.2" rx="5.8" ry="15.2"/>
				<path class="st6" d="M173.1,168.3c0.6-3.4-0.1-8.7-2.1-14.3c-2-5.4-4.8-9.8-7.5-12"/>
				<path class="st6" d="M179.6,165.8c0.6-3.4-0.1-8.7-2.1-14.3c-2-5.4-4.8-9.8-7.5-12"/>
				<path class="st6" d="M186.2,163.4c0.6-3.4-0.1-8.7-2.1-14.3c-2-5.4-4.8-9.8-7.5-12"/>
			</g>
		</g>
		<g>
			<path class="st7" d="M240.5,311.7l11.2,6.8c8.1,4.9,18.7,2.4,23.7-5.8l0,0c4.9-8.1,2.4-18.7-5.8-23.7l-32.4-19.7
				c-2.3-1.4-5.2-0.7-6.6,1.6l0,0C222.1,285,226.5,303.2,240.5,311.7z"/>
			<g>
				
					<ellipse transform="matrix(0.9143 -0.4051 0.4051 0.9143 -95.0354 105.3177)" class="st8" cx="201.3" cy="277.2" rx="6.7" ry="16.5"/>
				
					<rect x="201.5" y="254.5" transform="matrix(0.9143 -0.4051 0.4051 0.9143 -90.5511 111.491)" class="st9" width="33.3" height="30.4"/>
				
					<ellipse transform="matrix(0.9143 -0.4051 0.4051 0.9143 -86.5448 117.0642)" class="st5" cx="233.3" cy="263" rx="5.8" ry="15.2"/>
				
					<ellipse transform="matrix(0.9143 -0.4051 0.4051 0.9143 -86.5448 117.0642)" class="st8" cx="233.3" cy="263" rx="6.7" ry="16.5"/>
				
					<ellipse transform="matrix(0.9143 -0.4051 0.4051 0.9143 -94.5816 105.8843)" class="st9" cx="202.9" cy="276.4" rx="5.8" ry="15.2"/>
				<path class="st6" d="M226.4,281.5c-2.8-2-6-6.3-8.5-11.7c-2.3-5.3-3.4-10.4-3-13.8"/>
				<path class="st6" d="M220,284.4c-2.8-2-6-6.3-8.5-11.7c-2.3-5.3-3.4-10.4-3-13.8"/>
				<path class="st6" d="M213.6,287.2c-2.8-2-6-6.3-8.5-11.7c-2.3-5.3-3.4-10.4-3-13.8"/>
			</g>
			<g>
				<path class="st10" d="M282.3,229.6l6.8,22.2c1.2,4,6.3,5.1,9.1,2.1l15.9-17c2.8-3,1.3-8-2.7-8.9l-22.6-5.2
					C284.6,221.9,281.1,225.6,282.3,229.6z"/>
				<g>
					
						<rect x="244.3" y="336" transform="matrix(0.8475 -0.5308 0.5308 0.8475 -138.3466 201.1899)" class="st11" width="73.3" height="10.7"/>
					<circle class="st7" cx="286.3" cy="335.8" r="16.6"/>
					<path class="st11" d="M257,372.4l-14.7-23.5c-1.7-2.6-0.9-6.1,1.8-7.8l0,0c2.6-1.7,6.1-0.9,7.8,1.8l14.7,23.5
						c1.7,2.6,0.9,6.1-1.8,7.8l0,0C262.2,375.9,258.7,375.1,257,372.4z"/>
				</g>
				<g>
					
						<rect x="305.6" y="311.6" transform="matrix(0.9751 -0.2218 0.2218 0.9751 -69.5002 77.6422)" class="st11" width="10.7" height="73.3"/>
					<path class="st11" d="M331.1,381.3l-26.9,6.1c-3,0.7-6.1-1.2-6.8-4.3l0,0c-0.7-3,1.2-6.1,4.3-6.8l26.9-6.1
						c3-0.7,6.1,1.2,6.8,4.3l0,0C336.1,377.6,334.2,380.6,331.1,381.3z"/>
					<circle class="st10" cx="307.9" cy="335.9" r="16.6"/>
				</g>
				<g>
					<path class="st10" d="M339.1,339.4l-41.9,5.4c-17.4,2.2-33.4-10.1-35.6-27.5l0,0c-2.2-17.4,10.1-33.4,27.5-35.6l41.9-5.4
						c17.4-2.2,33.4,10.1,35.6,27.5l0,0C368.9,321.2,356.6,337.1,339.1,339.4z"/>
					<path class="st12" d="M285.8,313.4L285.8,313.4c-14.3-0.7-25.3-12.8-24.7-27.1l0.7-15.6c0.7-14.3,12.8-25.3,27.1-24.7l0,0
						c14.3,0.7,25.3,12.8,24.7,27.1l-0.7,15.6C312.2,303,300.1,314.1,285.8,313.4z"/>
					<path class="st13" d="M298.8,269.5c-0.3,6.1-4.9-1.5-11-1.8s-11.4,6.8-11.1,0.7s5.4-10.8,11.5-10.5S299.1,263.4,298.8,269.5z"
						/>
					
						<rect x="277.9" y="274.6" transform="matrix(0.9992 -3.980867e-02 3.980867e-02 0.9992 -10.9222 11.7804)" class="st12" width="24.9" height="11.1"/>
					<path class="st10" d="M328.7,276.5l32.9-29c4.5-4,11.5-0.3,10.8,5.6l-6.2,60.7L328.7,276.5z"/>
				</g>
				<g>
					<path class="st12" d="M350.8,313l-11.8,5.7c-8.6,4.1-18.9,0.6-23-8l0,0c-4.1-8.6-0.6-18.9,8-23l34.1-16.5
						c2.4-1.2,5.3-0.2,6.4,2.2l0,0C371.7,288.1,365.5,305.9,350.8,313z"/>
				</g>
				<polyline class="st14" points="258.6,248.5 265.6,265.1 252.9,273.4 				"/>
			</g>
		</g>
		<g>
			<g>
				<g>
					<g>
						<g>
							<path class="st15" d="M128,209.2h23.5c3.2,0,5.8-2.6,5.8-5.8l0,0c0-3.2-2.6-5.8-5.8-5.8H128c-3.2,0-5.8,2.6-5.8,5.8l0,0
								C122.3,206.6,124.8,209.2,128,209.2z"/>
						</g>
					</g>
					<g>
						<path class="st16" d="M132.5,128l11.9,1.9c14.2,2.2,23.9,15.5,21.7,29.7l-1.9,11.9c-3.3,21.1-22.9,36-44.1,32.8
							C99,201,84.5,181.2,87.8,160C91.2,138.9,111.4,124.7,132.5,128z"/>
					</g>
					<circle class="st13" cx="135.2" cy="147.6" r="10"/>
					<circle class="st16" cx="133.7" cy="161.5" r="10"/>
					<path class="st15" d="M161.1,155.6l9.5,2.7c5.5,1.6,8.6,7.2,7.1,12.7l0,0c-1.6,5.5-7.2,8.6-12.7,7.1l-9.5-2.7
						c-2-0.6-3.2-2.7-2.7-4.8l3.5-12.4C157,156.3,159.1,155.1,161.1,155.6z"/>
				</g>
			</g>
			<path class="st15" d="M134.9,209.2h-23.5c-3.2,0-5.8-2.6-5.8-5.8l0,0c0-3.2,2.6-5.8,5.8-5.8h23.5c3.2,0,5.8,2.6,5.8,5.8l0,0
				C140.7,206.6,138.1,209.2,134.9,209.2z"/>
			<g>
				<path class="st17" d="M101.8,172.6l-16-3.8c-11.7-2.8-17-16.3-10.5-26.3l0,0c6.5-10.1,21-10.7,28.4-1.2l10,13
					c3,3.9,3.2,9.2,0.5,13.4l0,0C111.6,171.8,106.6,173.8,101.8,172.6z"/>
			</g>
		</g>
		<g>
			<line class="st18" x1="149.6" y1="108.7" x2="160.1" y2="114.1"/>
			<g>
				<path class="st17" d="M143,98.3c-5.3,2.5-11.7,0.3-14.2-5l-6.5-13.6c-0.7-1.5-0.1-3.3,1.4-4l2.9-1.4c7-3.4,15.5-0.4,18.8,6.7
					l2.1,4.4C149.8,90.2,147.8,96,143,98.3L143,98.3z"/>
				<circle class="st19" cx="136" cy="101.2" r="20.9"/>
				<circle class="st13" cx="141.8" cy="102" r="7.1"/>
				<g>
					<path class="st20" d="M127.6,119.9l-0.3,5.9c-0.1,1.4,1,2.6,2.4,2.7l0,0c1.4,0.1,2.6-1,2.7-2.4l0.3-5.9c0.1-1.4-1-2.6-2.4-2.7
						l0,0C128.9,117.4,127.7,118.5,127.6,119.9z"/>
					<path class="st20" d="M126.9,124.7l6.3,0.5c1.4,0.1,2.5,1.4,2.4,2.8l0,0c-0.1,1.4-1.4,2.5-2.8,2.4l-6.3-0.5
						c-1.4-0.1-2.5-1.4-2.4-2.8l0,0C124.2,125.7,125.4,124.6,126.9,124.7z"/>
				</g>
			</g>
			
				<rect x="130.4" y="96.6" transform="matrix(0.508 -0.8614 0.8614 0.508 -26.2634 169.5974)" class="st19" width="9.9" height="22.3"/>
		</g>
		<g>
			<g>
				<path class="st20" d="M206,358.1c0.5,1.1,0,2.5-1.1,3l0,0c-1.1,0.5-2.5,0-3-1.1l-3.3-7.4c-0.5-1.1,0-2.5,1.1-3l0,0
					c1.1-0.5,2.5,0,3,1.1L206,358.1z"/>
				<path class="st20" d="M198.6,361.4c0.5,1.1,0,2.5-1.1,3l0,0c-1.2,0.5-2.5,0-3-1.1l-3.3-7.4c-0.5-1.1,0-2.5,1.1-3l0,0
					c1.1-0.5,2.5,0,3,1.1L198.6,361.4z"/>
				<path class="st20" d="M192.1,364.1l16-7.2c1.2-0.6,2.7,0,3.3,1.2l0,0c0.6,1.2,0,2.7-1.2,3.3l-16,7.2c-1.2,0.6-2.7,0-3.3-1.2l0,0
					C190.3,366.1,190.9,364.7,192.1,364.1z"/>
				<circle class="st21" cx="185.6" cy="316.5" r="8.3"/>
				<circle class="st22" cx="190.2" cy="339.4" r="19.8"/>
				<circle class="st13" cx="191.3" cy="334.8" r="7.2"/>
			</g>
			
				<rect x="183.5" y="338" transform="matrix(0.8287 -0.5597 0.5597 0.8287 -158.6305 167.8304)" class="st22" width="22.7" height="10.1"/>
			<polyline class="st23" points="216,331.1 207.1,329.5 208.7,320.2 			"/>
		</g>
		<polyline class="st24" points="289.8,141.8 299,151.5 291.3,161.1 		"/>
		<circle class="st25" cx="326.6" cy="129" r="12.9"/>
		<g>
			<g>
				<path class="st20" d="M325.5,177.3l-1.4,7c-0.3,1.7-1.9,2.7-3.6,2.4l0,0c-1.7-0.3-2.7-1.9-2.4-3.6l1.4-7
					c0.3-1.7,1.9-2.7,3.6-2.4l0,0C324.7,174,325.8,175.6,325.5,177.3z"/>
				<path class="st20" d="M325,183.1l-7.4-1.2c-1.7-0.3-3.3,0.9-3.5,2.6l0,0c-0.3,1.7,0.9,3.3,2.6,3.5l7.4,1.2
					c1.7,0.3,3.3-0.9,3.5-2.6l0,0C327.8,184.9,326.7,183.3,325,183.1z"/>
			</g>
			<circle class="st16" cx="322" cy="154.3" r="24.9"/>
			<circle class="st13" cx="315.2" cy="152.9" r="8.4"/>
			<g>
				<path class="st20" d="M340.4,165.2l6.3,3.3c1.5,0.8,2.1,2.6,1.3,4.1l0,0c-0.8,1.5-2.6,2.1-4.1,1.3l-6.3-3.3
					c-1.5-0.8-2.1-2.6-1.3-4.1l0,0C337,165,338.9,164.4,340.4,165.2z"/>
				<path class="st20" d="M345.8,167.4l-3.3,6.8c-0.7,1.5-0.1,3.4,1.5,4.1l0,0c1.5,0.7,3.4,0.1,4.1-1.5l3.3-6.8
					c0.7-1.5,0.1-3.4-1.5-4.1l0,0C348.4,165.2,346.5,165.8,345.8,167.4z"/>
			</g>
		</g>
		
			<rect x="309.3" y="154" transform="matrix(0.8402 -0.5422 0.5422 0.8402 -35.1721 200.4488)" class="st16" width="26.5" height="11.8"/>
		<circle class="st19" cx="345.2" cy="138.7" r="12.9"/>
	</g>
</g>
</svg>
