<svg data-v-423bf9ae="" xmlns="http://www.w3.org/2000/svg" viewBox="0 0 112.3789496170847 163" class="iconAbove"><!----><!----><!----><g data-v-423bf9ae="" id="d8cc989c-e584-4b38-bd2d-289c32d98906" fill="black" transform="matrix(4.2105263157894735,0,0,4.2105263157894735,-3.789475073939869,97.69473473649276)"><path d="M9.24 6.66L9.24 6.66Q9.55 6.66 9.75 6.87L9.75 6.87L9.75 6.87Q9.95 7.07 9.95 7.39L9.95 7.39L9.95 10.74L9.95 10.74Q9.95 11.07 9.73 11.26L9.73 11.26L9.73 11.26Q8.26 12.47 6.30 12.47L6.30 12.47L6.30 12.47Q4.80 12.47 3.56 11.73L3.56 11.73L3.56 11.73Q2.32 10.99 1.61 9.70L1.61 9.70L1.61 9.70Q0.90 8.41 0.90 6.86L0.90 6.86L0.90 6.86Q0.90 5.32 1.61 4.04L1.61 4.04L1.61 4.04Q2.32 2.76 3.56 2.01L3.56 2.01L3.56 2.01Q4.80 1.26 6.30 1.26L6.30 1.26L6.30 1.26Q7.36 1.26 8.14 1.54L8.14 1.54L8.14 1.54Q8.92 1.82 9.72 2.46L9.72 2.46L9.72 2.46Q9.88 2.59 9.94 2.72L9.94 2.72L9.94 2.72Q10.00 2.86 10.00 3.04L10.00 3.04L10.00 3.04Q10.00 3.32 9.79 3.50L9.79 3.50L9.79 3.50Q9.59 3.68 9.31 3.68L9.31 3.68L9.31 3.68Q9.06 3.68 8.83 3.50L8.83 3.50L8.83 3.50Q8.26 3.01 7.71 2.79L7.71 2.79L7.71 2.79Q7.17 2.58 6.30 2.58L6.30 2.58L6.30 2.58Q5.21 2.58 4.29 3.15L4.29 3.15L4.29 3.15Q3.37 3.72 2.83 4.71L2.83 4.71L2.83 4.71Q2.30 5.70 2.30 6.86L2.30 6.86L2.30 6.86Q2.30 8.04 2.83 9.02L2.83 9.02L2.83 9.02Q3.37 10.00 4.29 10.57L4.29 10.57L4.29 10.57Q5.21 11.14 6.30 11.14L6.30 11.14L6.30 11.14Q7.48 11.14 8.55 10.44L8.55 10.44L8.55 7.95L6.62 7.95L6.62 7.95Q6.30 7.95 6.10 7.77L6.10 7.77L6.10 7.77Q5.89 7.59 5.89 7.31L5.89 7.31L5.89 7.31Q5.89 7.03 6.10 6.85L6.10 6.85L6.10 6.85Q6.30 6.66 6.62 6.66L6.62 6.66L9.24 6.66ZM12.28 5.39L12.28 5.39Q12.28 5.07 12.48 4.87L12.48 4.87L12.48 4.87Q12.68 4.68 12.99 4.68L12.99 4.68L12.99 4.68Q13.31 4.68 13.51 4.87L13.51 4.87L13.51 4.87Q13.71 5.07 13.71 5.39L13.71 5.39L13.71 11.62L13.71 11.62Q13.71 11.93 13.51 12.13L13.51 12.13L13.51 12.13Q13.31 12.33 12.99 12.33L12.99 12.33L12.99 12.33Q12.68 12.33 12.48 12.13L12.48 12.13L12.48 12.13Q12.28 11.93 12.28 11.62L12.28 11.62L12.28 5.39ZM12.99 1.58L12.99 1.58Q13.37 1.58 13.64 1.85L13.64 1.85L13.64 1.85Q13.92 2.13 13.92 2.51L13.92 2.51L13.92 2.51Q13.92 2.88 13.64 3.16L13.64 3.16L13.64 3.16Q13.37 3.43 12.99 3.43L12.99 3.43L12.99 3.43Q12.61 3.43 12.34 3.16L12.34 3.16L12.34 3.16Q12.07 2.88 12.07 2.51L12.07 2.51L12.07 2.51Q12.07 2.13 12.34 1.85L12.34 1.85L12.34 1.85Q12.61 1.58 12.99 1.58L12.99 1.58ZM19.84 4.62L19.84 4.62Q20.94 4.62 21.82 5.12L21.82 5.12L21.82 5.12Q22.69 5.61 23.19 6.50L23.19 6.50L23.19 6.50Q23.69 7.38 23.69 8.51L23.69 8.51L23.69 11.54L23.69 11.54Q23.69 12.64 23.20 13.55L23.20 13.55L23.20 13.55Q22.71 14.46 21.82 14.99L21.82 14.99L21.82 14.99Q20.93 15.51 19.81 15.51L19.81 15.51L19.81 15.51Q18.80 15.51 17.93 15.11L17.93 15.11L17.93 15.11Q17.07 14.71 16.48 13.97L16.48 13.97L16.48 13.97Q16.32 13.78 16.32 13.58L16.32 13.58L16.32 13.58Q16.32 13.29 16.62 13.08L16.62 13.08L16.62 13.08Q16.81 12.95 17.01 12.95L17.01 12.95L17.01 12.95Q17.36 12.95 17.58 13.24L17.58 13.24L17.58 13.24Q17.96 13.73 18.54 13.99L18.54 13.99L18.54 13.99Q19.11 14.25 19.84 14.25L19.84 14.25L19.84 14.25Q20.52 14.25 21.08 13.92L21.08 13.92L21.08 13.92Q21.64 13.59 21.98 12.96L21.98 12.96L21.98 12.96Q22.32 12.32 22.32 11.44L22.32 11.44L22.32 10.75L22.32 10.75Q21.88 11.52 21.17 11.96L21.17 11.96L21.17 11.96Q20.45 12.39 19.56 12.39L19.56 12.39L19.56 12.39Q18.52 12.39 17.70 11.89L17.70 11.89L17.70 11.89Q16.88 11.40 16.43 10.51L16.43 10.51L16.43 10.51Q15.97 9.63 15.97 8.51L15.97 8.51L15.97 8.51Q15.97 7.38 16.46 6.50L16.46 6.50L16.46 6.50Q16.95 5.61 17.84 5.12L17.84 5.12L17.84 5.12Q18.72 4.62 19.84 4.62L19.84 4.62ZM19.84 11.13L19.84 11.13Q20.55 11.13 21.12 10.79L21.12 10.79L21.12 10.79Q21.69 10.46 22.00 9.86L22.00 9.86L22.00 9.86Q22.32 9.27 22.32 8.51L22.32 8.51L22.32 8.51Q22.32 7.76 22.00 7.15L22.00 7.15L22.00 7.15Q21.69 6.55 21.12 6.22L21.12 6.22L21.12 6.22Q20.55 5.88 19.84 5.88L19.84 5.88L19.84 5.88Q19.12 5.88 18.56 6.22L18.56 6.22L18.56 6.22Q17.99 6.55 17.67 7.15L17.67 7.15L17.67 7.15Q17.35 7.76 17.35 8.51L17.35 8.51L17.35 8.51Q17.35 9.27 17.67 9.86L17.67 9.86L17.67 9.86Q17.99 10.46 18.56 10.79L18.56 10.79L18.56 10.79Q19.12 11.13 19.84 11.13L19.84 11.13ZM25.96 5.39L25.96 5.39Q25.96 5.07 26.16 4.87L26.16 4.87L26.16 4.87Q26.36 4.68 26.67 4.68L26.67 4.68L26.67 4.68Q26.99 4.68 27.19 4.87L27.19 4.87L27.19 4.87Q27.38 5.07 27.38 5.39L27.38 5.39L27.38 11.62L27.38 11.62Q27.38 11.93 27.19 12.13L27.19 12.13L27.19 12.13Q26.99 12.33 26.67 12.33L26.67 12.33L26.67 12.33Q26.36 12.33 26.16 12.13L26.16 12.13L26.16 12.13Q25.96 11.93 25.96 11.62L25.96 11.62L25.96 5.39ZM26.67 1.58L26.67 1.58Q27.05 1.58 27.32 1.85L27.32 1.85L27.32 1.85Q27.59 2.13 27.59 2.51L27.59 2.51L27.59 2.51Q27.59 2.88 27.32 3.16L27.32 3.16L27.32 3.16Q27.05 3.43 26.67 3.43L26.67 3.43L26.67 3.43Q26.29 3.43 26.02 3.16L26.02 3.16L26.02 3.16Q25.75 2.88 25.75 2.51L25.75 2.51L25.75 2.51Q25.75 2.13 26.02 1.85L26.02 1.85L26.02 1.85Q26.29 1.58 26.67 1.58L26.67 1.58Z"></path></g><!----><g data-v-423bf9ae="" id="8745afa6-8bc0-4d6e-9461-12b71fbba140" transform="matrix(1.8,0,0,1.8,-2.3991004943847685,-10.800000000000004)" stroke="none" fill="black"><path d="M33.414 48.616c2.077 2.078 4.84 3.222 7.778 3.222s5.701-1.144 7.778-3.222c4.288-4.288 4.288-11.267 0-15.556a10.929 10.929 0 0 0-7.778-3.222c-2.938 0-5.7 1.145-7.778 3.222a10.925 10.925 0 0 0-3.222 7.777c0 2.939 1.144 5.702 3.222 7.779zm1.414-14.141a8.94 8.94 0 0 1 6.364-2.636c2.403 0 4.664.937 6.364 2.636 3.509 3.51 3.509 9.219 0 12.728-1.7 1.7-3.96 2.636-6.364 2.636s-4.664-.936-6.364-2.636-2.636-3.96-2.636-6.363c0-2.405.936-4.665 2.636-6.365z"></path><path d="M33.014 11.446a1 1 0 1 0-1.415 1.414l18.479 18.479c5.068 5.069 5.068 13.317 0 18.385s-13.316 5.068-18.385 0l-14.52-14.52a.999.999 0 1 0-1.414 1.414l14.52 14.52c2.924 2.924 6.766 4.387 10.606 4.387s7.683-1.463 10.606-4.387c5.849-5.849 5.849-15.364 0-21.213L33.014 11.446z"></path><path d="M23.515 35.889a.999.999 0 0 0 0 1.414l2.122 2.121a.997.997 0 0 0 1.414 0 .999.999 0 0 0 0-1.414l-2.122-2.121a.999.999 0 0 0-1.414 0zM20.686 34.061a.999.999 0 0 0 .707-1.707l-9.899-9.9a.999.999 0 1 0-1.414 1.414l9.899 9.9a.997.997 0 0 0 .707.293zM27.757 33.061a.997.997 0 0 0 1.414 0 .999.999 0 0 0 0-1.414l-4.95-4.95a.999.999 0 1 0-1.414 1.414l4.95 4.95zM17.858 23.161a.997.997 0 0 0 1.414 0 .999.999 0 0 0 0-1.414l-8.009-8.009a.999.999 0 1 0-1.414 1.414l8.009 8.009zM34.121 30.525a.999.999 0 0 0 .707-1.707l-1.414-1.414A.999.999 0 1 0 32 28.818l1.414 1.414a.997.997 0 0 0 .707.293zM27.757 24.575a.997.997 0 0 0 1.414 0 .999.999 0 0 0 0-1.414l-4.243-4.243a.999.999 0 1 0-1.414 1.414l4.243 4.243zM19.979 16.797a.997.997 0 0 0 1.414 0 .999.999 0 0 0 0-1.414l-2.121-2.122a.999.999 0 1 0-1.414 1.414l2.121 2.122zM32 17.504a.999.999 0 1 0-1.414 1.414l8.485 8.485a.997.997 0 0 0 1.414 0 .999.999 0 0 0 0-1.414L32 17.504zM26.343 14.675a.997.997 0 0 0 1.414 0 .999.999 0 0 0 0-1.414l-2.829-2.828a.999.999 0 1 0-1.414 1.414l2.829 2.828z"></path><circle cx="9" cy="34" r="1"></circle><circle cx="9" cy="38.293" r="1"></circle><circle cx="29.878" cy="7" r="1"></circle><circle cx="43.313" cy="14.676" r="1"></circle><circle cx="49" cy="23.161" r="1"></circle><circle cx="25" cy="51" r="1"></circle><circle cx="20" cy="46" r="1"></circle><circle cx="28" cy="55" r="1"></circle><circle cx="56.999" cy="31" r="1"></circle><circle cx="13" cy="45" r="1"></circle><path d="M44.728 45.788a.997.997 0 0 0 1.414 0c1.323-1.322 2.053-3.08 2.053-4.949s-.729-3.627-2.053-4.95a.999.999 0 1 0-1.414 1.414 4.97 4.97 0 0 1 1.467 3.536c0 1.334-.521 2.59-1.467 3.535a.999.999 0 0 0 0 1.414z"></path></g><!----></svg>